<?xml version="1.0" encoding="UTF-8"?>
<svg version="1.1" xmlns="http://www.w3.org/2000/svg" width="512" height="512">
<path d="M0 0 C1.90625 0.3984375 1.90625 0.3984375 4.40625 1.7109375 C6.1571649 4.84799337 6.06245047 6.51453581 6 10.06640625 C5.98646484 11.06309326 5.97292969 12.05978027 5.95898438 13.08666992 C5.93288086 14.23099487 5.93288086 14.23099487 5.90625 15.3984375 C6.66768311 15.37749023 7.42911621 15.35654297 8.21362305 15.33496094 C11.67353032 15.25165955 15.13322638 15.19973166 18.59375 15.1484375 C19.79193359 15.11492188 20.99011719 15.08140625 22.22460938 15.046875 C23.96000977 15.02753906 23.96000977 15.02753906 25.73046875 15.0078125 C27.32507935 14.9763916 27.32507935 14.9763916 28.9519043 14.94433594 C32.70014976 15.5204649 34.34366869 16.62484793 36.90625 19.3984375 C37.21875 22.1484375 37.21875 22.1484375 36.90625 24.3984375 C37.76863281 24.44452148 38.63101562 24.49060547 39.51953125 24.53808594 C49.21758638 25.11413198 58.82791493 26.08109592 68.46142578 27.33544922 C70.10452236 27.54579971 71.74879238 27.74716131 73.39404297 27.93994141 C75.81768369 28.22420441 78.23665657 28.53488448 80.65625 28.8515625 C81.38239502 28.93198792 82.10854004 29.01241333 82.85668945 29.09527588 C89.24618045 29.9865083 93.83354082 32.74926932 97.81640625 37.83984375 C99.83219446 42.57224977 99.52123999 47.36235284 98.90625 52.3984375 C96.72972881 56.91270368 93.98760461 59.55524665 89.90625 62.3984375 C86.82421875 63.3046875 86.82421875 63.3046875 83.09375 63.8984375 C82.39741455 64.01098877 81.7010791 64.12354004 80.98364258 64.23950195 C69.92934102 65.95468651 58.80265422 67.2719271 47.69921875 68.62890625 C46.4877417 68.77739014 45.27626465 68.92587402 44.02807617 69.07885742 C40.90625 69.3984375 40.90625 69.3984375 36.90625 69.3984375 C36.844375 70.3265625 36.7825 71.2546875 36.71875 72.2109375 C35.90625 75.3984375 35.90625 75.3984375 33.7277832 77.0793457 C30.52898807 78.5748108 28.46332252 78.74546938 24.94921875 78.69140625 C23.83740234 78.68173828 22.72558594 78.67207031 21.58007812 78.66210938 C19.8543457 78.6244043 19.8543457 78.6244043 18.09375 78.5859375 C16.33901367 78.56563477 16.33901367 78.56563477 14.54882812 78.54492188 C11.667498 78.50964028 8.78711096 78.4603403 5.90625 78.3984375 C5.93344116 79.54276245 5.93344116 79.54276245 5.96118164 80.71020508 C5.97528076 81.70689209 5.98937988 82.7035791 6.00390625 83.73046875 C6.02203369 84.72022705 6.04016113 85.70998535 6.05883789 86.72973633 C5.90625 89.3984375 5.90625 89.3984375 4.34375 92.0859375 C0.96910737 93.90305276 -1.31510599 93.870768 -5.09375 93.3984375 C-8.2787857 91.63828619 -8.92671972 90.89952834 -10.09375 87.3984375 C-10.16115865 85.83725322 -10.17889456 84.2734123 -10.15625 82.7109375 C-10.14722656 81.90269531 -10.13820313 81.09445313 -10.12890625 80.26171875 C-10.11150391 79.33939453 -10.11150391 79.33939453 -10.09375 78.3984375 C-10.79459717 78.41414795 -11.49544434 78.4298584 -12.2175293 78.44604492 C-15.40535351 78.50856162 -18.59304851 78.54748131 -21.78125 78.5859375 C-22.88404297 78.61107422 -23.98683594 78.63621094 -25.12304688 78.66210938 C-26.7230957 78.67661133 -26.7230957 78.67661133 -28.35546875 78.69140625 C-29.33475342 78.7071167 -30.31403809 78.72282715 -31.32299805 78.73901367 C-34.64512681 78.33066319 -36.41713159 77.38871472 -39.09375 75.3984375 C-39.54025909 74.70706192 -39.98676819 74.01568634 -40.44680786 73.30335999 C-41.91885918 71.19572765 -41.91885918 71.19572765 -44.24745178 71.01785278 C-45.08110764 71.0739975 -45.91476349 71.13014221 -46.77368164 71.18798828 C-47.72219498 71.24189728 -48.67070831 71.29580627 -49.64796448 71.35134888 C-50.67292526 71.43134125 -51.69788605 71.51133362 -52.75390625 71.59375 C-53.81355087 71.66125458 -54.8731955 71.72875916 -55.96495056 71.79830933 C-58.21256106 71.9453345 -60.45953571 72.10236596 -62.70581055 72.26855469 C-66.11724595 72.52055628 -69.52955968 72.74357669 -72.94335938 72.9609375 C-75.13032393 73.10766198 -77.31717778 73.25604788 -79.50390625 73.40625 C-81.020093 73.50802048 -81.020093 73.50802048 -82.56690979 73.61184692 C-88.86789004 74.08460596 -94.93047855 75.00440131 -101.09375 76.3984375 C-103.86325767 84.29153435 -105.9938581 92.30799105 -108.09375 100.3984375 C-107.29710937 100.56859375 -106.50046875 100.73875 -105.6796875 100.9140625 C-95.51846186 103.23804111 -89.69974571 106.50553876 -84.09375 115.3984375 C-80.80206502 125.27349245 -83.7832468 135.49991725 -86.49072266 145.14990234 C-88.20875943 151.39981078 -88.20875943 151.39981078 -86.09375 157.3984375 C-85.448281 163.53039298 -85.448281 163.53039298 -87.90625 166.8359375 C-90.09375 168.3984375 -90.09375 168.3984375 -93.09375 168.3984375 C-93.42375 169.3884375 -93.75375 170.3784375 -94.09375 171.3984375 C-95.21910156 171.76582031 -96.34445312 172.13320312 -97.50390625 172.51171875 C-99.94676856 173.46876141 -100.86678807 173.93832271 -102.04248047 176.32177734 C-102.68083793 178.7367005 -103.14013041 181.11902224 -103.53125 183.5859375 C-103.69044922 184.43091797 -103.84964844 185.27589844 -104.01367188 186.14648438 C-104.40128755 188.22551389 -104.75124578 190.31150183 -105.09375 192.3984375 C-104.46581543 192.67913086 -103.83788086 192.95982422 -103.19091797 193.24902344 C-98.9096854 195.59547779 -97.48249878 200.93550394 -96.09375 205.3984375 C-96.46875 208.8359375 -96.46875 208.8359375 -98.09375 211.3984375 C-98.89167969 211.85992187 -99.68960937 212.32140625 -100.51171875 212.796875 C-105.22223596 217.54302396 -105.43812184 224.53070028 -106.67773438 230.91601562 C-108.4167162 239.13086778 -110.87733434 245.80772939 -117.41015625 251.37109375 C-125.05929601 255.08258939 -133.09443212 256.00077317 -141.28613281 253.37524414 C-142.21264648 253.05289795 -143.13916016 252.73055176 -144.09375 252.3984375 C-144.32145584 253.43777435 -144.54916168 254.47711121 -144.7837677 255.54794312 C-147.52390254 267.99759327 -150.42219433 280.40713712 -153.35546875 292.8125 C-153.8642851 294.9685616 -154.37298992 297.12464952 -154.8815918 299.28076172 C-157.3563325 309.76912202 -159.83620158 320.2562703 -162.31564045 330.74352074 C-163.44864892 335.53600356 -164.58144445 340.32853667 -165.71409035 345.12110519 C-166.28010715 347.5160631 -166.84619689 349.91100377 -167.41235924 352.30592728 C-170.8727013 366.94595782 -174.31160524 381.59064413 -177.71097374 396.24495316 C-178.86474116 401.21463367 -180.02373576 406.18309827 -181.18269062 411.15157127 C-182.06182616 414.92323416 -182.93694962 418.69573328 -183.80258179 422.47052002 C-189.46597828 447.15472291 -194.95506037 468.69499014 -213.09375 487.3984375 C-213.63257813 488.01074219 -214.17140625 488.62304688 -214.7265625 489.25390625 C-223.83724377 499.25734272 -236.49008077 505.14265309 -249.09375 509.3984375 C-250.05796875 509.73875 -251.0221875 510.0790625 -252.015625 510.4296875 C-276.14483431 517.47280805 -300.99112304 511.18490806 -322.65625 500.1484375 C-329.12444355 496.56783036 -334.62798914 492.35954715 -340.09375 487.3984375 C-340.58230469 486.95902832 -341.07085937 486.51961914 -341.57421875 486.06689453 C-360.79042546 468.57347757 -372.85163707 444.18458446 -374.47265625 418.13671875 C-375.1309232 400.65653714 -372.42921929 384.55116747 -369.09790039 367.45654297 C-363.32143015 337.70968273 -362.59865482 308.37901522 -368.03125 278.4609375 C-368.18883789 277.59299561 -368.34642578 276.72505371 -368.50878906 275.83081055 C-370.18344975 266.93258122 -370.18344975 266.93258122 -373.09375 258.3984375 C-376.48361486 256.13852759 -377.74872225 256.31905257 -381.64453125 256.90234375 C-385.53744367 257.6908603 -389.34956616 258.77213501 -393.1640625 259.875 C-397.07857869 260.57439356 -400.47323701 260.31672819 -403.96875 258.3359375 C-405.77059505 255.23275992 -405.92914199 251.82551803 -405.09375 248.3984375 C-401.92823973 244.44797377 -398.92936389 243.46135047 -394.1015625 242.19140625 C-392.99606049 241.89422195 -392.99606049 241.89422195 -391.8682251 241.59103394 C-389.32162739 240.90985442 -386.77029444 240.24832808 -384.21875 239.5859375 C-382.35983265 239.09240396 -380.50128643 238.59747094 -378.64306641 238.10131836 C-374.21112506 236.92028308 -369.77702581 235.74772829 -365.34179688 234.57910156 C-355.44490904 231.96928241 -345.55878937 229.31917323 -335.671875 226.671875 C-331.82406062 225.64166566 -327.97624201 224.61147209 -324.12841797 223.58129883 C-322.68460031 223.19470895 -322.68460031 223.19470895 -321.21161461 222.80030918 C-314.48588368 220.99982492 -307.759064 219.20345083 -301.03173828 217.40893555 C-298.27411333 216.67297408 -295.516506 215.93694664 -292.7589035 215.20090103 C-291.03385517 214.7406598 -289.30872548 214.28072338 -287.58350372 213.82113266 C-285.16660979 213.17724829 -282.75000083 212.53230624 -280.33349609 211.88696289 C-279.56816307 211.68303043 -278.80283005 211.47909798 -278.01430511 211.26898575 C-274.04008905 210.2053891 -270.07521211 209.1153545 -266.11871338 207.98751831 C-265.30641581 207.7570729 -264.49411823 207.52662748 -263.65720558 207.28919888 C-262.11906146 206.85119159 -260.58219779 206.40865088 -259.04694176 205.96062565 C-253.91149782 204.49946634 -248.39950577 203.05236838 -243.09375 204.3984375 C-240.88851738 205.99138205 -240.19245548 206.86426667 -239.6953125 209.5546875 C-239.70304688 210.328125 -239.71078125 211.1015625 -239.71875 211.8984375 C-239.71101562 212.671875 -239.70328125 213.4453125 -239.6953125 214.2421875 C-240.19760072 216.96045318 -240.98155583 217.64993045 -243.09375 219.3984375 C-245.23852539 220.2421875 -245.23852539 220.2421875 -247.69140625 220.8984375 C-248.57505859 221.1459375 -249.45871094 221.3934375 -250.36914062 221.6484375 C-252.23085629 222.14941775 -254.092837 222.64941406 -255.95507812 223.1484375 C-257.27862305 223.5196875 -257.27862305 223.5196875 -258.62890625 223.8984375 C-259.437229 224.115 -260.24555176 224.3315625 -261.07836914 224.5546875 C-263.44606637 225.32751403 -263.44606637 225.32751403 -265.09375 228.3984375 C-264.76763581 235.46887065 -262.99896801 241.94034399 -261.03125 248.7109375 C-260.47316049 250.64317876 -259.91958385 252.57673068 -259.37109375 254.51171875 C-259.12609131 255.35516846 -258.88108887 256.19861816 -258.62866211 257.06762695 C-258.09375 259.3984375 -258.09375 259.3984375 -258.09375 263.3984375 C-255.78375 263.0684375 -253.47375 262.7384375 -251.09375 262.3984375 C-251.01125 261.6353125 -250.92875 260.8721875 -250.84375 260.0859375 C-250.09375 257.3984375 -250.09375 257.3984375 -248.34375 255.5859375 C-245.72222443 254.20235456 -244.01700122 254.15483323 -241.09375 254.3984375 C-240.908125 252.635 -240.908125 252.635 -240.71875 250.8359375 C-240.36946962 247.928692 -239.83492414 245.55006385 -238.96875 242.7109375 C-238.06705682 239.29738475 -237.93724333 237.69003342 -239.09375 234.3984375 C-239.63 233.8209375 -240.16625 233.2434375 -240.71875 232.6484375 C-242.97038968 228.96393621 -241.93344387 225.42565348 -241.09375 221.3984375 C-240.25635381 218.09950172 -239.39838153 214.81308026 -238.46655273 211.53979492 C-237.66744286 208.71563884 -237.09375 206.35179783 -237.09375 203.3984375 C-237.75375 202.8209375 -238.41375 202.2434375 -239.09375 201.6484375 C-241.09375 199.3984375 -241.09375 199.3984375 -241.53125 195.8984375 C-240.88654279 190.74077984 -240.88654279 190.74077984 -238.09375 188.3984375 C-234.40625 187.6484375 -234.40625 187.6484375 -231.09375 187.3984375 C-231.01898438 186.84800781 -230.94421875 186.29757813 -230.8671875 185.73046875 C-229.792566 178.93506807 -228.10729222 172.33598543 -226.28125 165.7109375 C-226.04519043 164.82059814 -225.80913086 163.93025879 -225.56591797 163.01293945 C-223.31128385 155.02969415 -220.16613113 147.95862029 -212.96875 143.3671875 C-205.29717754 139.40354173 -197.57912021 140.08376002 -189.46875 142.4609375 C-188.685 142.7703125 -187.90125 143.0796875 -187.09375 143.3984375 C-186.98853027 142.760271 -186.88331055 142.12210449 -186.77490234 141.46459961 C-185.462606 133.85587 -183.69382734 126.42281374 -181.71875 118.9609375 C-181.28175781 117.22553711 -181.28175781 117.22553711 -180.8359375 115.45507812 C-180.54203125 114.34455078 -180.248125 113.23402344 -179.9453125 112.08984375 C-179.55593506 110.59239624 -179.55593506 110.59239624 -179.15869141 109.06469727 C-177.93906937 106.01116854 -176.6381172 104.45982132 -174.09375 102.3984375 C-170.84375 101.6484375 -170.84375 101.6484375 -168.09375 101.3984375 C-167.97257813 100.68558594 -167.85140625 99.97273438 -167.7265625 99.23828125 C-166.78311031 93.84608909 -165.72012791 88.62608078 -164.09375 83.3984375 C-164.733125 82.8828125 -165.3725 82.3671875 -166.03125 81.8359375 C-168.74492061 78.62887223 -168.82796659 76.56952233 -169.09375 72.3984375 C-165.10427046 54.21752577 -155.68186473 40.45711202 -140.09375 30.3984375 C-131.0669904 25.79590452 -122.08558723 23.06856422 -111.93359375 23.17138672 C-111.16189346 23.17109467 -110.39019318 23.17080261 -109.59510803 23.17050171 C-107.07370297 23.17188219 -104.5526027 23.18738217 -102.03125 23.203125 C-100.27148602 23.2068597 -98.51171994 23.20970451 -96.75195312 23.21170044 C-92.14225424 23.21930092 -87.53268333 23.23891827 -82.92303467 23.2611084 C-78.21042613 23.28164441 -73.49779673 23.29071868 -68.78515625 23.30078125 C-59.55463157 23.32216784 -50.32420147 23.35626006 -41.09375 23.3984375 C-40.825625 22.4496875 -40.5575 21.5009375 -40.28125 20.5234375 C-39.09375 17.3984375 -39.09375 17.3984375 -36.09375 15.3984375 C-33.36645508 15.17138672 -33.36645508 15.17138672 -30.11328125 15.203125 C-28.36821289 15.21279297 -28.36821289 15.21279297 -26.58789062 15.22265625 C-25.37294922 15.23941406 -24.15800781 15.25617187 -22.90625 15.2734375 C-21.67970703 15.28246094 -20.45316406 15.29148437 -19.18945312 15.30078125 C-16.15735705 15.32437733 -13.12565062 15.35729909 -10.09375 15.3984375 C-10.11115234 14.71281738 -10.12855469 14.02719727 -10.14648438 13.32080078 C-10.16678711 11.97091064 -10.16678711 11.97091064 -10.1875 10.59375 C-10.20490234 9.70187988 -10.22230469 8.81000977 -10.24023438 7.89111328 C-10.09375 5.3984375 -10.09375 5.3984375 -8.59375 2.2734375 C-5.55417303 -0.00624523 -3.73107716 -0.29236052 0 0 Z M-274.09375 409.3984375 C-274.83285803 411.58216578 -275.56928626 413.76685499 -276.2890625 415.95703125 C-276.95738375 417.98470495 -277.64776837 420.00509077 -278.34375 422.0234375 C-279.33931328 426.50347225 -279.31719134 430.29139963 -276.96875 434.3359375 C-273.87085642 436.09141053 -271.56530466 435.88567324 -268.09375 435.3984375 C-264.45593893 431.75380127 -263.1597072 428.19261085 -261.84375 423.2734375 C-261.50859375 422.05398438 -261.1734375 420.83453125 -260.828125 419.578125 C-259.98123283 416.45516054 -259.98123283 416.45516054 -260.09375 413.3984375 C-264.71375 412.0784375 -269.33375 410.7584375 -274.09375 409.3984375 Z " fill="#020100" transform="translate(409.09375,-0.3984375)"/>
<path d="M0 0 C0.15033691 0.61705811 0.30067383 1.23411621 0.45556641 1.86987305 C3.17551092 12.99327424 5.96313539 24.07350578 9.1875 35.0625 C13.8047194 51.08906464 15.44629979 65.29923295 15 82 C12.2624587 80.95329303 9.75517046 79.8604882 7.203125 78.40625 C3.33499809 76.70804794 -0.09559129 76.46471445 -4.25 76.5 C-4.99926758 76.50354492 -5.74853516 76.50708984 -6.52050781 76.51074219 C-12.94641379 76.70227027 -17.68394825 78.32047927 -23 82 C-23.928125 82.5775 -24.85625 83.155 -25.8125 83.75 C-31.50742917 89.60764144 -34.97886932 97.56043182 -35.375 105.6875 C-35.15189238 114.41494526 -32.0175475 121.97100402 -25.99609375 128.27734375 C-18.98733536 134.32599825 -12.3159223 136.15470629 -3.1875 136.0625 C-2.02605469 136.05347656 -0.86460938 136.04445313 0.33203125 136.03515625 C1.21246094 136.02355469 2.09289062 136.01195312 3 136 C2.36684209 141.12524666 1.31839344 145.96530771 -0.0625 150.9375 C-0.24876953 151.62134766 -0.43503906 152.30519531 -0.62695312 153.00976562 C-1.08089057 154.67420293 -1.53990916 156.33725312 -2 158 C-5.45218071 158 -6.97127067 157.15348431 -10 155.5625 C-17.62073151 151.58202863 -24.5360932 151.23287854 -33 152 C-36.71060775 153.19388924 -39.76809171 154.84121077 -43 157 C-43.928125 157.5775 -44.85625 158.155 -45.8125 158.75 C-51.50742917 164.60764144 -54.97886932 172.56043182 -55.375 180.6875 C-55.12674533 189.87292276 -51.70733463 197.48699651 -45.3203125 204.05078125 C-38.25999375 209.98192444 -31.20398264 211.66731652 -22.10546875 211.30859375 C-17.92668445 210.89334349 -14.05199998 210.09884745 -10 209 C-9.5875 209.53109375 -9.175 210.0621875 -8.75 210.609375 C-4.23946441 216.12672657 -0.02623591 220.23283768 7.2265625 221.33984375 C14.3027189 221.64380236 20.14638581 219.66713002 25.75 215.375 C32.73364281 208.74813942 34.25428903 198.7715156 36.375 189.75 C39.28171985 177.7360867 42.49802523 165.85283768 46 154 C46.83144531 154.49371094 47.66289062 154.98742187 48.51953125 155.49609375 C49.60621094 156.13675781 50.69289063 156.77742187 51.8125 157.4375 C52.89144531 158.07558594 53.97039062 158.71367187 55.08203125 159.37109375 C61.45708457 162.92985845 68.86622479 163.06427075 76 162 C80.30296224 160.43443422 84.10712063 158.39408765 88 156 C88.66 155.67 89.32 155.34 90 155 C89.25491221 162.72538396 87.48700164 170.19678251 85.75 177.75 C85.59282501 178.43708038 85.43565002 179.12416077 85.27371216 179.83206177 C84.19249788 184.55706086 83.09773794 189.27881461 82 194 C81.76200684 195.03560059 81.52401367 196.07120117 81.27880859 197.13818359 C75.64716808 221.51911852 67.78256091 243.0212743 45.6875 257.375 C28.47835733 267.36080454 8.41481243 271.21583197 -11 266.3125 C-17.27768618 264.38815032 -23.18139545 262.03690325 -29 259 C-29.96421875 258.50886719 -30.9284375 258.01773437 -31.921875 257.51171875 C-40.09123717 253.07782918 -46.47300283 247.51748259 -53 241 C-53.98613281 240.03126953 -53.98613281 240.03126953 -54.9921875 239.04296875 C-70.88627812 222.23331991 -77.97273363 198.53659645 -77.5234375 175.82421875 C-77.08304136 167.54750825 -75.36392765 159.53475165 -73.6875 151.4375 C-64.84898238 108.63552163 -62.06288372 61.92029406 -77 20 C-69.56110454 17.57014181 -62.09891845 15.4801873 -54.5 13.625 C-47.45082923 11.90289642 -40.46704806 10.02875873 -33.5 8 C-26.32150843 5.91553087 -19.12427364 3.94918086 -11.875 2.125 C-11.02744141 1.90972656 -10.17988281 1.69445312 -9.30664062 1.47265625 C-8.13004883 1.18068359 -8.13004883 1.18068359 -6.9296875 0.8828125 C-6.24116699 0.71152832 -5.55264648 0.54024414 -4.84326172 0.36376953 C-3 0 -3 0 0 0 Z " fill="#FCC143" transform="translate(127,229)"/>
<path d="M0 0 C1.69107393 0.00373596 3.38215005 0.00658018 5.07322693 0.00857544 C9.49714262 0.01616601 13.92092437 0.03577455 18.3447876 0.0579834 C22.86981393 0.07854106 27.39486217 0.08759826 31.91992188 0.09765625 C40.77871377 0.11902531 49.6373716 0.15416949 58.49609375 0.1953125 C58.49609375 5.8053125 58.49609375 11.4153125 58.49609375 17.1953125 C55.80283936 17.33779419 55.80283936 17.33779419 53.05517578 17.4831543 C47.08696827 17.80412813 41.12022682 18.14565517 35.15397835 18.50085735 C31.54067675 18.71523589 27.92730423 18.92163568 24.3125 19.10913086 C20.81634124 19.29077803 17.32204591 19.49425804 13.8279686 19.71219826 C11.86263066 19.82927756 9.89602309 19.92438882 7.92947388 20.01896667 C-0.97397679 20.60040587 -8.66218947 22.16150988 -15.00390625 28.8203125 C-15.49890625 29.6040625 -15.99390625 30.3878125 -16.50390625 31.1953125 C-17.16390625 32.1853125 -17.82390625 33.1753125 -18.50390625 34.1953125 C-19.20977537 36.62661913 -19.84040438 39.03129023 -20.421875 41.4921875 C-20.59980591 42.22502457 -20.77773682 42.95786163 -20.96105957 43.71290588 C-21.5440065 46.12226925 -22.11789567 48.53368705 -22.69140625 50.9453125 C-23.09517333 52.62401079 -23.49922908 54.30263967 -23.90356445 55.98120117 C-26.72822664 67.75016939 -29.41810369 79.54686955 -32.04956055 91.36035156 C-33.97008385 99.9477945 -36.04625088 108.48314722 -38.22192383 117.0090332 C-41.59518454 130.33788577 -44.52352582 143.7742952 -47.50390625 157.1953125 C-48.16390625 157.1953125 -48.82390625 157.1953125 -49.50390625 157.1953125 C-50.59110306 155.98470416 -51.62445249 154.72540706 -52.62890625 153.4453125 C-57.49452557 147.69410975 -63.53570049 144.54659629 -71.078125 143.87890625 C-72.44896978 143.79281455 -73.82008325 143.71091773 -75.19140625 143.6328125 C-75.89330078 143.58962891 -76.59519531 143.54644531 -77.31835938 143.50195312 C-79.04665831 143.3961389 -80.77525735 143.29524669 -82.50390625 143.1953125 C-81.53399921 135.68215202 -79.81742764 128.55410981 -77.60498047 121.32495117 C-75.36738553 113.93182749 -73.51519005 106.45510145 -71.67822266 98.95385742 C-70.41908447 93.82079541 -69.10964469 88.71636611 -67.66137695 83.63354492 C-65.95028357 77.60588308 -65.06463083 72.45498717 -65.50390625 66.1953125 C-67.15390625 65.5353125 -68.80390625 64.8753125 -70.50390625 64.1953125 C-69.58170392 59.29304159 -68.51822005 54.43062518 -67.19140625 49.62109375 C-66.97613281 48.82356689 -66.76085937 48.02604004 -66.5390625 47.2043457 C-65.17532611 44.55760354 -63.82879065 44.09715639 -61.06640625 43.1328125 C-60.28652344 42.94976562 -59.50664062 42.76671875 -58.703125 42.578125 C-55.05365717 40.28343297 -54.53616327 36.50593351 -53.37890625 32.5078125 C-51.2414694 25.12919325 -49.0874218 19.69906354 -43.50390625 14.1953125 C-42.78976562 13.47988281 -42.075625 12.76445313 -41.33984375 12.02734375 C-29.0587923 0.44264058 -16.1284229 -0.10512261 0 0 Z " fill="#FBB036" transform="translate(310.50390625,37.8046875)"/>
<path d="M0 0 C0.83144531 0.49371094 1.66289062 0.98742187 2.51953125 1.49609375 C3.60621094 2.13675781 4.69289063 2.77742188 5.8125 3.4375 C7.43091797 4.39462891 7.43091797 4.39462891 9.08203125 5.37109375 C15.45708457 8.92985845 22.86622479 9.06427075 30 8 C34.30296224 6.43443422 38.10712063 4.39408765 42 2 C42.66 1.67 43.32 1.34 44 1 C43.25491221 8.72538396 41.48700164 16.19678251 39.75 23.75 C39.51423752 24.78062057 39.51423752 24.78062057 39.27371216 25.83206177 C38.19249788 30.55706086 37.09773794 35.27881461 36 40 C35.64301025 41.55340088 35.64301025 41.55340088 35.27880859 43.13818359 C29.64716808 67.51911852 21.78256091 89.0212743 -0.3125 103.375 C-17.52164267 113.36080454 -37.58518757 117.21583197 -57 112.3125 C-65.89408675 109.60018691 -74.04267076 105.77439755 -82 101 C-80 100 -80 100 -77.5 100.4375 C-57.59071025 103.63720728 -37.37842513 96.52263448 -21.31640625 85.08984375 C0.78078084 68.17221041 7.1517846 44.9096234 13 19 C12.20996582 18.70198486 11.41993164 18.40396973 10.60595703 18.09692383 C5.42188312 15.91479491 1.25911385 10.04978389 -1 5 C-0.56640625 2.3515625 -0.56640625 2.3515625 0 0 Z " fill="#FCB036" transform="translate(173,383)"/>
<path d="M0 0 C1.3808654 0.0001133 1.3808654 0.0001133 2.78962708 0.00022888 C4.26020821 0.00797081 4.26020821 0.00797081 5.76049805 0.01586914 C6.77444138 0.01728409 7.7883847 0.01869904 8.83305359 0.02015686 C12.06280501 0.02574211 15.29248642 0.03829194 18.5222168 0.05102539 C20.71557517 0.0560423 22.90893463 0.06060487 25.10229492 0.06469727 C30.47145932 0.07570671 35.84058306 0.0924302 41.2097168 0.11352539 C35.0593375 5.05086869 28.24447854 5.30270156 20.63183594 5.74511719 C1.96058017 6.83135418 -9.9367717 11.50079942 -22.8684082 25.31665039 C-29.28467853 34.65414949 -31.6833205 45.45654529 -34.2902832 56.30102539 C-34.70898657 58.00738218 -35.12827505 59.71359549 -35.5480957 61.41967773 C-40.04552029 79.80290074 -44.27746681 98.25207871 -48.49926758 116.70019531 C-48.76968872 117.87763809 -49.04010986 119.05508087 -49.31872559 120.26820374 C-49.82737056 122.48404237 -50.3336193 124.70043295 -50.83703613 126.91746521 C-51.94550689 131.74075607 -53.09418301 136.45422667 -54.7902832 141.11352539 C-58.4202832 141.44352539 -62.0502832 141.77352539 -65.7902832 142.11352539 C-64.74269162 134.58991313 -63.10980112 127.49191633 -60.89135742 120.24316406 C-58.65376249 112.85004038 -56.80156701 105.37331434 -54.96459961 97.87207031 C-53.70546143 92.7390083 -52.39602164 87.634579 -50.94775391 82.55175781 C-49.23666052 76.52409597 -48.35100779 71.37320006 -48.7902832 65.11352539 C-50.4402832 64.45352539 -52.0902832 63.79352539 -53.7902832 63.11352539 C-52.86808088 58.21125448 -51.804597 53.34883807 -50.4777832 48.53930664 C-50.26250977 47.74177979 -50.04723633 46.94425293 -49.82543945 46.12255859 C-48.46170306 43.47581643 -47.11516761 43.01536928 -44.3527832 42.05102539 C-43.57290039 41.86797852 -42.79301758 41.68493164 -41.98950195 41.49633789 C-38.34003413 39.20164586 -37.82254022 35.4241464 -36.6652832 31.42602539 C-34.52784636 24.04740614 -32.37379876 18.61727643 -26.7902832 13.11352539 C-26.07614258 12.3980957 -25.36200195 11.68266602 -24.6262207 10.94555664 C-17.31188034 4.04594691 -10.21603353 -0.02814334 0 0 Z " fill="#FBC042" transform="translate(293.790283203125,38.886474609375)"/>
<path d="M0 0 C4.0217445 0.54640592 7.98232052 1.14976627 11.9375 2.0625 C12.70964844 2.23910156 13.48179687 2.41570312 14.27734375 2.59765625 C14.84582031 2.73042969 15.41429687 2.86320313 16 3 C11.42480085 23.54826287 6.05558997 43.83990921 0 64 C-3.65324338 63.41230433 -7.26684674 62.75753483 -10.875 61.9375 C-11.65617188 61.76089844 -12.43734375 61.58429688 -13.2421875 61.40234375 C-13.82226562 61.26957031 -14.40234375 61.13679688 -15 61 C-15.02578125 60.39671875 -15.0515625 59.7934375 -15.078125 59.171875 C-15.25844906 54.0132838 -15.25844906 54.0132838 -18.125 50 C-20 48 -20 48 -20.14453125 46.15234375 C-19.56405791 39.94237428 -17.77111889 33.95942519 -16 28 C-14.01432292 27.70703125 -12.02864583 27.4140625 -10.04296875 27.12109375 C-6.22418964 25.02551133 -5.47522056 20.59771573 -4.30004883 16.64672852 C-3.60389062 14.12615569 -2.95079203 11.59831276 -2.3125 9.0625 C-2.08755859 8.18787109 -1.86261719 7.31324219 -1.63085938 6.41210938 C-1.08223208 4.27596479 -0.53874036 2.13865534 0 0 Z " fill="#F2A830" transform="translate(188,207)"/>
<path d="M0 0 C5.41991554 0.73636551 10.67715191 1.77165044 16 3 C12.19402517 20.45003556 7.6503659 37.70261804 2.63085938 54.84033203 C1.74011896 57.88967016 0.86947392 60.9445374 0 64 C-2.00401011 63.69169075 -4.00291344 63.35036606 -6 63 C-6.78117188 62.8659375 -7.56234375 62.731875 -8.3671875 62.59375 C-9.57761719 62.36171875 -9.57761719 62.36171875 -10.8125 62.125 C-11.58207031 61.98320312 -12.35164062 61.84140625 -13.14453125 61.6953125 C-13.75683594 61.46585937 -14.36914062 61.23640625 -15 61 C-16.30481574 57.08555278 -15.15466003 54.58324073 -13.9375 50.8125 C-11.70503815 43.59652558 -9.79041147 36.33760913 -8 29 C-5.60839606 19.24247256 -2.9487475 9.6030007 0 0 Z " fill="#F0A72F" transform="translate(168,282)"/>
<path d="M0 0 C1.24716797 0.74056641 1.24716797 0.74056641 2.51953125 1.49609375 C3.60621094 2.13675781 4.69289062 2.77742188 5.8125 3.4375 C6.89144531 4.07558594 7.97039062 4.71367187 9.08203125 5.37109375 C15.63572931 9.02958383 22.70926424 8.68808149 30 8 C32.96485022 6.94533935 35.45622534 5.71483899 38.14453125 4.09375 C40 3 40 3 42 3 C40.68760121 9.00477434 39.34989177 15.00354924 38 21 C37.67926514 22.43424316 37.67926514 22.43424316 37.35205078 23.89746094 C36.7021882 26.78798056 36.04013072 29.6754597 35.375 32.5625 C35.16915283 33.48442139 34.96330566 34.40634277 34.7512207 35.35620117 C34.55230225 36.20931885 34.35338379 37.06243652 34.1484375 37.94140625 C33.88812744 39.08138062 33.88812744 39.08138062 33.62255859 40.24438477 C33 42 33 42 31 43 C30.6596875 42.34773438 30.319375 41.69546875 29.96875 41.0234375 C25.71246725 33.34854467 20.58983538 27.84218783 12.2734375 24.5234375 C6.65949927 23.23088128 0.74188325 23.21430452 -5 23 C-4.44636539 14.97229811 -2.34312056 7.66145933 0 0 Z " fill="#F8AD35" transform="translate(193,308)"/>
<path d="M0 0 C3.3696492 1.26509637 6.29660345 2.77796207 9.375 4.625 C17.42254193 8.6908732 26.98451695 8.27321841 35.4375 5.5 C36.613125 5.005 37.78875 4.51 39 4 C37.91702134 11.80714468 36.28878917 19.45325616 34.5 27.125 C34.28641846 28.06174561 34.07283691 28.99849121 33.8527832 29.96362305 C33.64355225 30.84445557 33.43432129 31.72528809 33.21875 32.6328125 C33.03248047 33.42574707 32.84621094 34.21868164 32.65429688 35.03564453 C32 37 32 37 30 39 C29.62488281 38.46890625 29.24976563 37.9378125 28.86328125 37.390625 C23.76901695 30.35874381 18.48930809 25.45403235 10 23 C4.99644836 22.39638111 0.03986847 22.13280286 -5 22 C-4.36684209 16.87475334 -3.31839344 12.03469229 -1.9375 7.0625 C-1.75123047 6.37865234 -1.56496094 5.69480469 -1.37304688 4.99023438 C-0.91910943 3.32579707 -0.46009084 1.66274688 0 0 Z " fill="#F8AD35" transform="translate(213,234)"/>
<path d="M0 0 C4.47749925 1.99888359 7.0535202 4.60006476 9.3046875 9.0078125 C10.59602643 12.70771617 10.69395538 16.15871162 10 20 C7.46759618 24.9710149 4.01138866 28.49430567 -1 31 C-6.46432756 31.80238267 -10.82225422 31.65704066 -15.4375 28.4375 C-19.54714601 24.87691601 -21.70210611 21.36802481 -22.19140625 15.8359375 C-22.01876247 9.92542678 -19.68960972 6.73812797 -15.69140625 2.53125 C-11.36071832 -1.38937279 -5.50742636 -0.50460713 0 0 Z " fill="#F9DC74" transform="translate(128,320)"/>
<path d="M0 0 C4.60018518 2.2802642 7.1910389 5.61287501 8.875 10.3359375 C9.72932562 16.20942615 8.12932169 20.52247133 4.875 25.3359375 C0.02819692 29.83654036 -3.11692942 30.69717329 -9.5859375 30.61328125 C-13.34960402 30.20217306 -15.34290187 28.8530739 -18.125 26.3359375 C-22.16866083 20.98081911 -23.6962466 17.07664735 -23.125 10.3359375 C-17.98482222 0.45098023 -10.85740324 -3.39293851 0 0 Z " fill="#FADC74" transform="translate(109.125,395.6640625)"/>
<path d="M0 0 C3.46236126 2.39067801 5.74528805 5.0530761 7.625 8.8125 C8.17862612 14.73204086 8.20817919 19.8422837 4.625 24.8125 C0.94407247 28.76608883 -2.48415705 30.17091985 -7.875 30.4375 C-14.56998814 30.11562557 -17.94141919 27.48158863 -22.3125 22.6875 C-24.21458071 17.54069338 -24.66892086 11.76242656 -22.42578125 6.6484375 C-16.90207268 -1.54128813 -9.19080697 -3.23380245 0 0 Z " fill="#FADD74" transform="translate(223.375,272.1875)"/>
<path d="M0 0 C4.24591364 3.06100751 7.16189006 6.09006529 8.13671875 11.37109375 C8.40162254 17.37253468 7.38150432 21.20159703 3.6875 25.9375 C-1.04840297 29.63150432 -4.87746532 30.65162254 -10.87890625 30.38671875 C-16.15993471 29.41189006 -19.18899249 26.49591364 -22.25 22.25 C-24.13363878 16.37747911 -24.38982825 11.1750279 -21.6875 5.5625 C-15.29895138 -1.49852742 -8.9806689 -2.88059191 0 0 Z " fill="#FADD75" transform="translate(203.3125,347.0625)"/>
<path d="M0 0 C3.46236126 2.39067801 5.74528805 5.0530761 7.625 8.8125 C8.14613171 14.04090334 8.26773534 18.45286754 6 23.25 C2.84369258 26.65548959 0.19019048 29.44992891 -4.5859375 30.125 C-8.85370389 30.23842901 -12.6850289 30.10626582 -16.375 27.8125 C-20.72160282 23.49777935 -23.16415589 20.34262931 -23.6875 14.0625 C-23.61174411 9.48347732 -22.24222087 6.35172576 -19.375 2.8125 C-13.66328932 -2.49123135 -7.08595419 -2.4932061 0 0 Z " fill="#FBDD75" transform="translate(243.375,197.1875)"/>
<path d="M0 0 C10.96478873 0.94481173 10.96478873 0.94481173 16 3 C17.1875 5.4375 17.1875 5.4375 18 8 C19.99478661 9.65909374 19.99478661 9.65909374 22 11 C21.55883456 14.11550675 21.03723021 17.21223402 20.5 20.3125 C20.37625 21.19357422 20.2525 22.07464844 20.125 22.98242188 C18.96831521 29.32009062 18.96831521 29.32009062 16.234375 31.23974609 C14.16063592 32.04127354 12.17809635 32.56560214 10 33 C9.12988281 33.25652344 8.25976562 33.51304687 7.36328125 33.77734375 C4.34137511 34.06205226 2.08517698 33.43529427 -0.8125 32.5625 C-2.27623047 32.13130859 -2.27623047 32.13130859 -3.76953125 31.69140625 C-4.50558594 31.46324219 -5.24164063 31.23507813 -6 31 C-7.06736775 27.00804463 -6.85129408 24.31422249 -5.8203125 20.33203125 C-5.55089844 19.27435547 -5.28148437 18.21667969 -5.00390625 17.12695312 C-4.71386719 16.03318359 -4.42382812 14.93941406 -4.125 13.8125 C-3.84269531 12.70712891 -3.56039063 11.60175781 -3.26953125 10.46289062 C-1.1761615 2.35232301 -1.1761615 2.35232301 0 0 Z " fill="#F1A730" transform="translate(286,161)"/>
<path d="M0 0 C2.9375 2.0625 2.9375 2.0625 5 5 C5.1875 8.5625 5.1875 8.5625 4 12 C0.01198579 15.13114586 -3.60501887 16.71385542 -8.5 17.921875 C-9.716875 18.22480469 -10.93375 18.52773438 -12.1875 18.83984375 C-13.445625 19.14019531 -14.70375 19.44054687 -16 19.75 C-17.258125 20.06582031 -18.51625 20.38164062 -19.8125 20.70703125 C-30.65349961 23.3598606 -30.65349961 23.3598606 -36 23 C-38.375 21.4375 -38.375 21.4375 -40 19 C-40.5625 15.5 -40.5625 15.5 -40 12 C-36.51154382 8.57522357 -33.37930055 7.25854327 -28.67578125 6.11328125 C-27.48275391 5.81486328 -26.28972656 5.51644531 -25.06054688 5.20898438 C-23.82369141 4.91314453 -22.58683594 4.61730469 -21.3125 4.3125 C-18.84985846 3.70605704 -16.38759781 3.09806454 -13.92578125 2.48828125 C-12.29249878 2.09443237 -12.29249878 2.09443237 -10.6262207 1.69262695 C-2.91015586 -0.34237128 -2.91015586 -0.34237128 0 0 Z " fill="#050401" transform="translate(112,250)"/>
<path d="M0 0 C0.84820312 0.12632812 1.69640625 0.25265625 2.5703125 0.3828125 C4.875 0.875 4.875 0.875 7.875 1.875 C6.15848511 9.73168508 4.3274767 17.55828106 2.4375 25.375 C2.28724365 26.02049805 2.1369873 26.66599609 1.98217773 27.33105469 C1.54334483 29.21318655 1.08641685 31.09107092 0.62890625 32.96875 C0.36408447 34.07927734 0.0992627 35.18980469 -0.17358398 36.33398438 C-0.48755127 37.17251953 -0.80151855 38.01105469 -1.125 38.875 C-4.81717033 40.10572344 -6.52067314 39.47950995 -10.25 38.5 C-11.32507813 38.22414062 -12.40015625 37.94828125 -13.5078125 37.6640625 C-16.125 36.875 -16.125 36.875 -17.125 35.875 C-16.51061987 29.38786863 -14.89295299 23.07480411 -13.375 16.75 C-13.13523438 15.67878906 -12.89546875 14.60757813 -12.6484375 13.50390625 C-9.01946768 -1.51703585 -9.01946768 -1.51703585 0 0 Z " fill="#EFA62F" transform="translate(210.125,156.125)"/>
<path d="M0 0 C1.93884889 0.28256092 3.87605961 0.5763793 5.8125 0.875 C6.89144531 1.03742188 7.97039062 1.19984375 9.08203125 1.3671875 C12 2 12 2 15 4 C14.36097527 10.14173768 13.154774 15.95954385 11.625 21.9375 C11.41617188 22.77990234 11.20734375 23.62230469 10.9921875 24.49023438 C9.57883824 30.08761452 7.90312332 35.55014685 6 41 C1.22836245 40.81314791 -2.04196421 40.66475953 -6.0625 37.875 C-8.57269124 34.1502001 -8.33839789 32.47388373 -8 28 C-7.21103781 24.44662605 -6.18366985 20.98130038 -5.125 17.5 C-4.85558594 16.58863281 -4.58617187 15.67726563 -4.30859375 14.73828125 C-3.78520566 12.96897418 -3.2583332 11.20069312 -2.72753906 9.43359375 C-1.78979264 6.29686342 -0.8913965 3.15017791 0 0 Z " fill="#F0A72F" transform="translate(148,357)"/>
<path d="M0 0 C5.28 0 10.56 0 16 0 C16 10.56 16 21.12 16 32 C10.72 32 5.44 32 0 32 C0 21.44 0 10.88 0 0 Z " fill="#655B65" transform="translate(415,30)"/>
<path d="M0 0 C5.28 0 10.56 0 16 0 C16 10.56 16 21.12 16 32 C10.72 32 5.44 32 0 32 C0 21.44 0 10.88 0 0 Z " fill="#655B65" transform="translate(384,30)"/>
<path d="M0 0 C4.76293801 0.71309524 8.66688776 1.83344388 13 4 C15.62151301 7.93226951 14.82597641 10.59511411 14 15 C13.39517365 17.95378784 12.71356661 20.88325736 12 23.8125 C11.82210938 24.56208984 11.64421875 25.31167969 11.4609375 26.08398438 C10.73855685 29.10019315 9.98124263 32.05627212 9 35 C7.06213915 34.52229477 5.12472326 34.04278429 3.1875 33.5625 C2.10855469 33.29566406 1.02960938 33.02882812 -0.08203125 32.75390625 C-2.0740843 32.23922588 -4.04811524 31.65062825 -6 31 C-5.48089929 23.75229032 -4.20271888 16.91609716 -2.4375 9.875 C-2.20353516 8.91851562 -1.96957031 7.96203125 -1.72851562 6.9765625 C-1.15838044 4.64948012 -0.58214777 2.32410068 0 0 Z " fill="#EFA62F" transform="translate(296,115)"/>
<path d="M0 0 C10.55808656 1.92710706 10.55808656 1.92710706 15 4 C14.71260986 10.10704039 13.68648827 15.95341869 12.1875 21.875 C11.87167969 23.13054687 11.55585938 24.38609375 11.23046875 25.6796875 C9.94040829 29.16080302 9.02116442 30.8613621 6 33 C3.52734375 33.20703125 3.52734375 33.20703125 0.9375 32.8125 C0.08027344 32.69519531 -0.77695312 32.57789063 -1.66015625 32.45703125 C-4 32 -4 32 -7 31 C-5.95750566 23.88086102 -4.58240162 16.87624264 -2.9375 9.875 C-2.7631543 9.12871338 -2.58880859 8.38242676 -2.40917969 7.61352539 C-1.13019255 2.2603851 -1.13019255 2.2603851 0 0 Z " fill="#EFA62F" transform="translate(275,206)"/>
<path d="M0 0 C0.56847656 0.39832031 1.13695313 0.79664063 1.72265625 1.20703125 C11.72555389 8.07045517 19.64683842 10.50525434 31.83984375 8.54296875 C33.90740068 8.08895546 35.95697329 7.55404114 38 7 C39.98 9.97 39.98 9.97 42 13 C37.61143925 17.78752082 33.57814974 21.54759026 26.94140625 22.38671875 C20.15522541 22.61423233 14.45373662 22.29362159 9 18 C5.09526165 14.28894907 1.30299957 10.35677603 0 5 C-0.02215462 3.33348059 -0.02487285 1.66648106 0 0 Z " fill="#FBB036" transform="translate(79,431)"/>
<path d="M0 0 C8.56028752 -0.23176324 16.81555306 0.53997246 25.28198242 1.65405273 C27.45729412 1.9401029 29.63372098 2.21596748 31.81054688 2.49023438 C43.29973205 3.95971526 43.29973205 3.95971526 47 5 C46.67 5.99 46.34 6.98 46 8 C40.73559503 8.7188467 35.47030481 9.43067827 30.20410156 10.13623047 C28.41543451 10.37685108 26.62701695 10.61933438 24.83886719 10.86376953 C22.25780724 11.21625542 19.67590264 11.56187131 17.09375 11.90625 C16.30383667 12.0156189 15.51392334 12.12498779 14.70007324 12.2376709 C9.75452971 12.88891756 4.98864791 13.09937546 0 13 C0 8.71 0 4.42 0 0 Z " fill="#514A52" transform="translate(446,40)"/>
<path d="M0 0 C0.71285156 0.48210937 1.42570312 0.96421875 2.16015625 1.4609375 C12.10715406 8.02086876 19.1768351 9.32002552 31 9 C30.30834212 14.41798672 29.24200752 19.6822785 28 25 C27.67 24.01 27.34 23.02 27 22 C26.3709375 22.04640625 25.741875 22.0928125 25.09375 22.140625 C18.76957268 22.40730718 14.15606611 21.82168047 9 18 C4.62178703 13.94130158 1.22318789 9.98002971 0 4 C0 2.68 0 1.36 0 0 Z " fill="#F8AE35" transform="translate(99,356)"/>
<path d="M0 0 C0.66 0 1.32 0 2 0 C2.21914062 0.51949219 2.43828125 1.03898437 2.6640625 1.57421875 C5.02183544 6.75940232 7.39481569 9.65077505 12 13 C11.67 14.65 11.34 16.3 11 18 C6.05 18 1.1 18 -4 18 C-3.48914188 11.56318772 -2.27057103 6.04057576 0 0 Z " fill="#F8BD41" transform="translate(192,313)"/>
<path d="M0 0 C0.66 0 1.32 0 2 0 C3.4375 1.8984375 3.4375 1.8984375 5 4.375 C6.57112484 6.84952162 7.92383041 8.92383041 10 11 C9.67 12.98 9.34 14.96 9 17 C4.71 17 0.42 17 -4 17 C-2.09756098 2.09756098 -2.09756098 2.09756098 0 0 Z " fill="#F6BC41" transform="translate(212,239)"/>
</svg>
